# xmcd
#
# Track frame offsets:
#	182
#	11952
#	25265
#	40077
#	55130
#	68445
#	83670
#	100520
#	120675
#	134615
#	148382
#	170205
#	183422
#	194672
#
# Disc length: 2772
#
# Revision: 3
# Processed by: cddbd v1.5.1PL0 Copyright (c) Steve Scherf et al.
# Submitted via: CDex 1.51
# Normalized: r2:DSETVAR1,TDELIM( - )
#
DISCID=c90ad20e
DTITLE=Various Artist - NEW COUNTRY JULY 1995
DYEAR=1995
DGENRE=Country
TTITLE0=KENNY CHESNEY - FALL IN LOVE
TTITLE1=STEVE FORBERT - IT SURE WAS BETTER BACK THEN
TTITLE2=LORRIE MORGAN - I DIDN'T KNOW MY OWN STRENGTH
TTITLE3=JASON and THE SCORCHERS - CRY BY NIGHT OPERATOR
TTITLE4=TERRY ANDERSON - WEATHER OR NOT
TTITLE5=KATE JACOBS - A SISTER
TTITLE6=RODNEY CROWELL - PLEASE REMEMBER ME
TTITLE7=THE GRASS IS GREENER - NORTHERN WHITE CLOUDS
TTITLE8=GRANT MCLENNAN - DON'T YOU CRY FOR ME NO MORE
TTITLE9=CLARIE LYNCH - SECOND WIND
TTITLE10=DENNIS BRENNAN - THERESA
TTITLE11=JEFF and SHERI EASTER - LET THE LITTLE THINGS GO
TTITLE12=JILL MORRIS - BEDROOM PROMISES
TTITLE13=RONNIE LEE KEEL - LAST CHANCE
EXTD=YEAR: 1995
EXTT0=KENNY CHESNEY
EXTT1=STEVE FORBERT
EXTT2=LORRIE MORGAN
EXTT3=JASON and THE SCORCHERS
EXTT4=TERRY ANDERSON
EXTT5=KATE JACOBS
EXTT6=RODNEY CROWELL
EXTT7=THE GRASS IS GREENER
EXTT8=GRANT McLENNAN
EXTT9=CLAIRE LYNCH
EXTT10=DENNIS BERNNAN
EXTT11=JEFF and SHERI EASTER
EXTT12=JILL MORRIS
EXTT13=RONNIE LEE KEEL
PLAYORDER=
